<svg xmlns="http://www.w3.org/2000/svg" viewBox="0 0 1080 660" width="100%" height="100%">
  <defs>
    <style>
      .hdr { font-family: -apple-system, BlinkMacSystemFont, "Segoe UI", Roboto, sans-serif; font-size: 14.5px; font-weight: 800; fill: #F8FAFC; letter-spacing: 0.5px; }
      .subhdr { font-family: -apple-system, BlinkMacSystemFont, "Segoe UI", Roboto, sans-serif; font-size: 11px; fill: #94A3B8; }
      .sec-title { font-family: -apple-system, BlinkMacSystemFont, "Segoe UI", Roboto, sans-serif; font-size: 11px; font-weight: 700; }
      .txt { font-family: -apple-system, BlinkMacSystemFont, "Segoe UI", Roboto, sans-serif; font-size: 9.5px; fill: #334155; }
      .txt-bold { font-family: -apple-system, BlinkMacSystemFont, "Segoe UI", Roboto, sans-serif; font-size: 9.5px; font-weight: 700; fill: #0F172A; }
      .txt-small { font-family: -apple-system, BlinkMacSystemFont, "Segoe UI", Roboto, sans-serif; font-size: 8.5px; fill: #64748B; }
      .formula { font-family: "Courier New", Courier, monospace; font-size: 9.5px; font-weight: 700; }
      .kpi-big { font-family: -apple-system, BlinkMacSystemFont, "Segoe UI", Roboto, sans-serif; font-size: 16px; font-weight: 800; }
    </style>

    <!-- Filters -->
    <filter id="cardShadow" x="-2%" y="-2%" width="104%" height="104%">
      <feDropShadow dx="0" dy="2" stdDeviation="3" flood-opacity="0.08" />
    </filter>

    <!-- Markers -->
    <marker id="arrBlue" markerWidth="6" markerHeight="4" refX="5" refY="2" orient="auto">
      <polygon points="0 0, 6 2, 0 4" fill="#0284C7" />
    </marker>
    <marker id="arrGreen" markerWidth="6" markerHeight="4" refX="5" refY="2" orient="auto">
      <polygon points="0 0, 6 2, 0 4" fill="#059669" />
    </marker>
    <marker id="arrAmber" markerWidth="6" markerHeight="4" refX="5" refY="2" orient="auto">
      <polygon points="0 0, 6 2, 0 4" fill="#D97706" />
    </marker>

    <!-- Gradients -->
    <linearGradient id="hdrGrad" x1="0%" y1="0%" x2="100%" y2="0%">
      <stop offset="0%" stop-color="#0F172A" />
      <stop offset="100%" stop-color="#1E293B" />
    </linearGradient>
    <linearGradient id="sunGrad" x1="0%" y1="0%" x2="100%" y2="100%">
      <stop offset="0%" stop-color="#FEF08A" />
      <stop offset="100%" stop-color="#EA580C" />
    </linearGradient>
    <linearGradient id="pvCurveGrad" x1="0%" y1="0%" x2="0%" y2="100%">
      <stop offset="0%" stop-color="#38BDF8" stop-opacity="0.45" />
      <stop offset="100%" stop-color="#38BDF8" stop-opacity="0.02" />
    </linearGradient>
    <linearGradient id="bessChargeGrad" x1="0%" y1="0%" x2="0%" y2="100%">
      <stop offset="0%" stop-color="#F59E0B" stop-opacity="0.6" />
      <stop offset="100%" stop-color="#F59E0B" stop-opacity="0.15" />
    </linearGradient>
    <linearGradient id="bessDischargeGrad" x1="0%" y1="0%" x2="0%" y2="100%">
      <stop offset="0%" stop-color="#10B981" stop-opacity="0.65" />
      <stop offset="100%" stop-color="#10B981" stop-opacity="0.15" />
    </linearGradient>
    <linearGradient id="batteryBody" x1="0%" y1="0%" x2="100%" y2="0%">
      <stop offset="0%" stop-color="#0F766E" />
      <stop offset="100%" stop-color="#115E59" />
    </linearGradient>
  </defs>

  <!-- Canvas Background -->
  <rect width="1080" height="660" fill="#F8FAFC" rx="10" />

  <!-- Header Banner -->
  <rect x="20" y="14" width="1040" height="48" rx="8" fill="url(#hdrGrad)" />
  <text x="540" y="34" text-anchor="middle" class="hdr">KIẾN TRÚC TÍCH HỢP HỆ THỐNG PIN LƯU TRỮ BESS (1.000 kW / 2.500 kWh) &amp; ĐIỀU ĐỘ NĂNG LƯỢNG</text>
  <text x="540" y="50" text-anchor="middle" class="subhdr">Sơ đồ tương tác: Thu hồi cắt ngọn biến tần (Clipping) ➔ Dịch chuyển đỉnh TOU ➔ Gọt đỉnh công suất lưới Demand Charge</text>

  <!-- TOP HALF: VISUAL POWER DISPATCH CURVE CHART (00:00 to 24:00) -->
  <g transform="translate(20, 70)" filter="url(#cardShadow)">
    <rect width="1040" height="235" rx="8" fill="#FFFFFF" stroke="#CBD5E1" stroke-width="1.2" />
    
    <!-- Title of Chart -->
    <rect x="12" y="10" width="310" height="22" rx="4" fill="#F1F5F9" />
    <text x="20" y="25" class="txt-bold" fill="#0F172A">📈 ĐỒ THỊ ĐIỀU ĐỘ CÔNG SUẤT VÀ NẠP/XẢ BESS (24 GIỜ)</text>

    <!-- Chart Legends -->
    <g transform="translate(260, 10)">
      <rect x="0" y="5" width="12" height="10" fill="#38BDF8" opacity="0.7" rx="2" />
      <text x="16" y="14" class="txt-small">Điện Mặt Trời Tự Dùng Tại Chỗ (Campus Self-Consumption)</text>
      
      <rect x="235" y="5" width="12" height="10" fill="#F59E0B" opacity="0.8" rx="2" />
      <text x="251" y="14" class="txt-small">Nạp BESS (Clipping + Dư)</text>

      <rect x="390" y="5" width="12" height="10" fill="#10B981" opacity="0.8" rx="2" />
      <text x="406" y="14" class="txt-small">Xả BESS Giờ Đỉnh (Peak TOU)</text>

      <line x1="565" y1="10" x2="585" y2="10" stroke="#DC2626" stroke-width="2" stroke-dasharray="4 2" />
      <text x="590" y="14" class="txt-small">Trần Inverter AC (1.850 kW)</text>
    </g>

    <!-- Chart Grid & Axes -->
    <g transform="translate(60, 42)">
      <!-- Background Grid lines -->
      <line x1="0" y1="140" x2="940" y2="140" stroke="#94A3B8" stroke-width="1.5" />
      <line x1="0" y1="105" x2="940" y2="105" stroke="#E2E8F0" stroke-width="1" stroke-dasharray="3 3" />
      <line x1="0" y1="70" x2="940" y2="70" stroke="#E2E8F0" stroke-width="1" stroke-dasharray="3 3" />
      <line x1="0" y1="35" x2="940" y2="35" stroke="#E2E8F0" stroke-width="1" stroke-dasharray="3 3" />
      <line x1="0" y1="0" x2="940" y2="0" stroke="#E2E8F0" stroke-width="1" stroke-dasharray="3 3" />

      <!-- Y-Axis Labels -->
      <text x="-8" y="143" text-anchor="end" class="txt-small">0 kW</text>
      <text x="-8" y="108" text-anchor="end" class="txt-small">600 kW</text>
      <text x="-8" y="73" text-anchor="end" class="txt-small">1.200 kW</text>
      <text x="-8" y="38" text-anchor="end" class="txt-small">1.850 kW (AC Limit)</text>
      <text x="-8" y="5" text-anchor="end" class="txt-small">2.428 kWp (DC Peak)</text>

      <!-- Inverter AC Limit line -->
      <line x1="0" y1="35" x2="940" y2="35" stroke="#DC2626" stroke-width="1.8" stroke-dasharray="6 3" />

      <!-- Solar Generation Base Curve (06:00 to 18:00) -->
      <!-- X mapping: 0h=0, 6h=235, 12h=470, 18h=705, 24h=940 -->
      <path d="M 235 140 Q 352 10, 470 5 Q 588 10, 705 140 Z" fill="url(#pvCurveGrad)" />
      <path d="M 235 140 Q 352 10, 470 5 Q 588 10, 705 140" fill="none" stroke="#0284C7" stroke-width="2.5" />
      <text x="352" y="80" text-anchor="middle" class="txt-bold" fill="#0284C7">ĐIỆN MẶT TRỜI TỰ DÙNG TẠI CHỖ</text>
      <text x="352" y="95" text-anchor="middle" font-size="7.5px" fill="#0369A1">(Cung cấp trực tiếp cho tải tiêu thụ trường học)</text>

      <!-- Clipped + Excess Solar Area Charged into BESS (10:30 to 14:30) -->
      <!-- X: 410 to 530, above Y=35 line -->
      <path d="M 410 35 Q 470 5, 530 35 Z" fill="url(#bessChargeGrad)" stroke="#D97706" stroke-width="1.5" />
      <text x="470" y="24" text-anchor="middle" class="txt-bold" fill="#B45309">⚡ SẠC BESS (CLIPPING RECOVERY)</text>
      <text x="470" y="48" text-anchor="middle" class="formula" fill="#B45309">69.782 kWh/Năm (88% Thu Hồi)</text>

      <!-- Evening Peak BESS Discharge Curve (17:00 to 21:00) -->
      <!-- X: 665 (17h) to 822 (21h), peak at 740, height Y=45 (800kW) -->
      <path d="M 665 140 C 685 70, 720 50, 740 50 C 765 50, 800 70, 822 140 Z" fill="url(#bessDischargeGrad)" stroke="#059669" stroke-width="2" />
      <text x="743" y="62" text-anchor="middle" class="txt-bold" fill="#047857">🔋 XẢ BESS GIỜ CAO ĐIỂM (PEAK TOU)</text>
      <text x="743" y="78" text-anchor="middle" class="txt-bold" fill="#047857">17:00 - 21:00</text>
      <text x="743" y="93" text-anchor="middle" class="formula" fill="#047857">642.400 kWh/Năm</text>
      <text x="743" y="107" text-anchor="middle" class="formula" fill="#047857">+163.812 AUD/Năm</text>

      <!-- Demand Charge Shaving Callout -->
      <rect x="675" y="114" width="135" height="20" rx="3" fill="#ECFDF5" stroke="#6EE7B7" />
      <text x="742" y="128" text-anchor="middle" class="txt-bold" fill="#047857">Gọt Đỉnh: +144.000 $/Năm</text>

      <!-- X-Axis Labels (Time of Day) -->
      <text x="0" y="156" text-anchor="middle" class="txt-small">00:00</text>
      <text x="117" y="156" text-anchor="middle" class="txt-small">03:00</text>
      <text x="235" y="156" text-anchor="middle" class="txt-bold" fill="#0284C7">06:00 (Mọc)</text>
      <text x="352" y="156" text-anchor="middle" class="txt-small">09:00</text>
      <text x="470" y="156" text-anchor="middle" class="txt-bold" fill="#D97706">12:00 (Trưa Đỉnh)</text>
      <text x="588" y="156" text-anchor="middle" class="txt-small">15:00</text>
      <text x="705" y="156" text-anchor="middle" class="txt-bold" fill="#0284C7">18:00 (Lặn)</text>
      <text x="822" y="156" text-anchor="middle" class="txt-bold" fill="#047857">21:00 (Hết Đỉnh)</text>
      <text x="940" y="156" text-anchor="middle" class="txt-small">24:00</text>
    </g>
  </g>

  <!-- BOTTOM HALF: 4 INTERACTIVE SYSTEM COMPONENT CARDS -->
  <g transform="translate(20, 315)">
    
    <!-- CARD 1: Solar Array & DC Ingestion -->
    <g transform="translate(0, 0)" filter="url(#cardShadow)">
      <rect width="245" height="325" rx="8" fill="#FFFFFF" stroke="#0284C7" stroke-width="1.5" />
      <rect width="245" height="30" rx="8" fill="#F0F9FF" />
      <text x="122" y="20" text-anchor="middle" class="sec-title" fill="#0369A1">1. GIÀN QUANG ĐIỆN 2.428 kWp</text>

      <!-- Visual Graphic: PV Panels on Roof -->
      <g transform="translate(20, 38)">
        <!-- Sun Icon -->
        <circle cx="20" cy="18" r="12" fill="url(#sunGrad)" />
        <line x1="20" y1="2" x2="20" y2="0" stroke="#EA580C" stroke-width="2" />
        <line x1="20" y1="34" x2="20" y2="36" stroke="#EA580C" stroke-width="2" />
        <line x1="4" y1="18" x2="2" y2="18" stroke="#EA580C" stroke-width="2" />
        <line x1="36" y1="18" x2="38" y2="18" stroke="#EA580C" stroke-width="2" />

        <!-- 3D PV Panels -->
        <polygon points="55,30 115,15 175,15 115,30" fill="#1E293B" stroke="#64748B" />
        <polygon points="55,30 115,30 115,36 55,36" fill="#334155" />
        <polygon points="115,30 175,15 175,21 115,36" fill="#0F172A" />
        <!-- Grid lines on panel -->
        <line x1="85" y1="22" x2="145" y2="22" stroke="#475569" stroke-width="0.8" />
        <line x1="115" y1="15" x2="85" y2="30" stroke="#475569" stroke-width="0.8" />
        <line x1="145" y1="15" x2="115" y2="30" stroke="#475569" stroke-width="0.8" />

        <!-- Second Panel -->
        <polygon points="55,50 115,35 175,35 115,50" fill="#1E293B" stroke="#64748B" />
        <polygon points="55,50 115,50 115,56 55,56" fill="#334155" />
        <polygon points="115,50 175,35 175,41 115,56" fill="#0F172A" />

        <text x="105" y="70" text-anchor="middle" class="txt-bold" fill="#0369A1">42 Trạm Áp Mái La Trobe</text>
      </g>

      <!-- Information List -->
      <g transform="translate(12, 115)">
        <rect width="221" height="195" rx="5" fill="#F8FAFC" stroke="#E2E8F0" />
        <text x="10" y="18" class="txt-bold" fill="#0369A1">• Tổng công suất:</text>
        <text x="20" y="32" class="txt">2.428 kWp (42 Trạm tại 5 Campus)</text>
        
        <text x="10" y="52" class="txt-bold" fill="#DC2626">• Tổn thất cắt ngọn Inverter:</text>
        <text x="20" y="66" class="txt">2,3% sản lượng (~79.298 kWh/Năm)</text>
        <text x="20" y="80" class="txt">Xuất hiện: 11:30 - 13:30 mùa hè</text>
        
        <text x="10" y="100" class="txt-bold" fill="#15803D">• Thu hồi DC-Coupled:</text>
        <text x="20" y="114" class="txt">Hấp thụ trực tiếp trước Inverter AC</text>
        <text x="20" y="128" class="txt-bold" fill="#15803D">Cứu 69.782 kWh/Năm (88% RTE)</text>

        <rect x="10" y="142" width="201" height="42" rx="4" fill="#F0F9FF" stroke="#BAE6FD" />
        <text x="110" y="158" text-anchor="middle" class="txt-bold" fill="#0369A1">GIÁ TRỊ THU HỒI CLIPPING:</text>
        <text x="110" y="174" text-anchor="middle" class="kpi-big" fill="#0284C7">+15.352 AUD/NĂM</text>
      </g>
    </g>

    <!-- CARD 2: BESS Battery Container & PCS -->
    <g transform="translate(265, 0)" filter="url(#cardShadow)">
      <rect width="255" height="325" rx="8" fill="#FFFFFF" stroke="#059669" stroke-width="1.5" />
      <rect width="255" height="30" rx="8" fill="#ECFDF5" />
      <text x="127" y="20" text-anchor="middle" class="sec-title" fill="#047857">2. KHỐI PIN BESS (1MW / 2.5MWh)</text>

      <!-- Visual Graphic: Battery Container / Rack -->
      <g transform="translate(25, 38)">
        <!-- Container Body -->
        <rect x="15" y="5" width="175" height="58" rx="4" fill="url(#batteryBody)" stroke="#042F2E" stroke-width="1.5" />
        <!-- Cooling Fan Grilles -->
        <circle cx="35" cy="25" r="8" fill="#134E4A" stroke="#2DD4BF" stroke-width="0.8" />
        <circle cx="35" cy="45" r="8" fill="#134E4A" stroke="#2DD4BF" stroke-width="0.8" />
        <!-- Battery Module Racks -->
        <rect x="55" y="12" width="35" height="12" rx="2" fill="#2DD4BF" />
        <rect x="55" y="28" width="35" height="12" rx="2" fill="#2DD4BF" />
        <rect x="55" y="44" width="35" height="12" rx="2" fill="#2DD4BF" />
        <rect x="95" y="12" width="35" height="12" rx="2" fill="#2DD4BF" />
        <rect x="95" y="28" width="35" height="12" rx="2" fill="#2DD4BF" />
        <rect x="95" y="44" width="35" height="12" rx="2" fill="#2DD4BF" />
        <!-- BMS Status Screen -->
        <rect x="140" y="15" width="40" height="38" rx="3" fill="#0F172A" stroke="#38BDF8" />
        <text x="160" y="28" text-anchor="middle" font-size="7px" fill="#4ADE80" font-weight="700">SOC 94%</text>
        <text x="160" y="38" text-anchor="middle" font-size="6px" fill="#38BDF8">54.2°C</text>
        <text x="160" y="48" text-anchor="middle" font-size="6px" fill="#FACC15">READY</text>

        <text x="102" y="72" text-anchor="middle" class="txt-bold" fill="#047857">Lithium Iron Phosphate (LiFePO4)</text>
      </g>

      <!-- Information List -->
      <g transform="translate(12, 115)">
        <rect width="231" height="195" rx="5" fill="#F8FAFC" stroke="#E2E8F0" />
        <text x="10" y="18" class="txt-bold" fill="#047857">• Thông số kỹ thuật BESS:</text>
        <text x="20" y="32" class="txt">Dung lượng: 2.500 kWh | CS: 1.000 kW</text>
        <text x="20" y="46" class="txt">Độ sâu xả DoD: 90% | Tuổi thọ: 15 năm</text>
        
        <text x="10" y="66" class="txt-bold" fill="#047857">• Tỷ lệ C-Rate:</text>
        <text x="20" y="80" class="txt">0.4C (Xả liên tục 2.5 giờ công suất đỉnh)</text>

        <text x="10" y="100" class="txt-bold" fill="#047857">• Nâng tỷ lệ tự tiêu thụ (Self-use):</text>
        <text x="20" y="114" class="txt-bold" fill="#059669">Tăng từ 68,2% ➔ 94,6% (+26,4%)</text>
        <text x="20" y="128" class="txt">Đạt chuẩn Campus Net-Zero Energy</text>

        <rect x="10" y="142" width="211" height="42" rx="4" fill="#ECFDF5" stroke="#6EE7B7" />
        <text x="115" y="158" text-anchor="middle" class="txt-bold" fill="#047857">CAPEX ĐẦU TƯ BESS:</text>
        <text x="115" y="174" text-anchor="middle" class="kpi-big" fill="#059669">1.250.000 AUD (500$/kWh)</text>
      </g>
    </g>

    <!-- CARD 3: Energy Arbitrage & Peak Shaving -->
    <g transform="translate(540, 0)" filter="url(#cardShadow)">
      <rect width="255" height="325" rx="8" fill="#FFFFFF" stroke="#D97706" stroke-width="1.5" />
      <rect width="255" height="30" rx="8" fill="#FFFBEB" />
      <text x="127" y="20" text-anchor="middle" class="sec-title" fill="#B45309">3. DỊCH CHUYỂN GIÁ &amp; GỌT ĐỈNH</text>

      <!-- Visual Graphic: Grid & University Loads -->
      <g transform="translate(25, 38)">
        <!-- University Campus Building -->
        <rect x="10" y="12" width="60" height="50" fill="#E2E8F0" stroke="#475569" stroke-width="1.2" />
        <polygon points="40,2 10,12 70,12" fill="#64748B" />
        <!-- Windows -->
        <rect x="18" y="18" width="10" height="8" fill="#38BDF8" />
        <rect x="34" y="18" width="10" height="8" fill="#38BDF8" />
        <rect x="50" y="18" width="10" height="8" fill="#38BDF8" />
        <rect x="18" y="32" width="10" height="8" fill="#FDE047" />
        <rect x="34" y="32" width="10" height="8" fill="#38BDF8" />
        <rect x="50" y="32" width="10" height="8" fill="#FDE047" />
        <rect x="32" y="48" width="15" height="14" fill="#334155" />

        <!-- Power Transmission Line Tower -->
        <line x1="140" y1="10" x2="140" y2="62" stroke="#475569" stroke-width="2" />
        <line x1="125" y1="22" x2="155" y2="22" stroke="#475569" stroke-width="1.5" />
        <line x1="120" y1="35" x2="160" y2="35" stroke="#475569" stroke-width="1.5" />
        <line x1="130" y1="10" x2="150" y2="62" stroke="#475569" stroke-width="1" />
        <line x1="150" y1="10" x2="130" y2="62" stroke="#475569" stroke-width="1" />

        <!-- Flow Arrows -->
        <path d="M 80 35 L 110 35" stroke="#059669" stroke-width="2" marker-end="url(#arrGreen)" />
        <text x="95" y="28" text-anchor="middle" font-size="8px" fill="#047857" font-weight="700">XẢ ĐIỆN</text>

        <text x="102" y="72" text-anchor="middle" class="txt-bold" fill="#B45309">Phụ Tải Đỉnh &amp; Lưới Điện Úc</text>
      </g>

      <!-- Information List -->
      <g transform="translate(12, 115)">
        <rect width="231" height="195" rx="5" fill="#F8FAFC" stroke="#E2E8F0" />
        <text x="10" y="18" class="txt-bold" fill="#B45309">• Chênh lệch giá giờ cao điểm (TOU):</text>
        <text x="20" y="32" class="txt">Xả 17:00 - 21:00: Tránh mua 0,32 $/kWh</text>
        <text x="20" y="46" class="txt">Năng lượng dịch chuyển: 642.400 kWh/Năm</text>
        <text x="20" y="60" class="txt-bold" fill="#B45309">Lợi nhuận TOU: +163.812 AUD/Năm</text>
        
        <text x="10" y="80" class="txt-bold" fill="#B45309">• Gọt đỉnh Demand Charge:</text>
        <text x="20" y="94" class="txt">Cắt đỉnh công suất trường học: 800 kW</text>
        <text x="20" y="108" class="txt">Phí hợp đồng: 15,00 AUD/kW/tháng</text>
        <text x="20" y="122" class="txt-bold" fill="#B45309">Tiết kiệm: +144.000 AUD/Năm</text>

        <rect x="10" y="142" width="211" height="42" rx="4" fill="#FFFBEB" stroke="#FDE68A" />
        <text x="115" y="158" text-anchor="middle" class="txt-bold" fill="#B45309">DOANH THU TOU + GỌT ĐỈNH:</text>
        <text x="115" y="174" text-anchor="middle" class="kpi-big" fill="#D97706">+307.812 AUD/NĂM</text>
      </g>
    </g>

    <!-- CARD 4: Executive Financial ROI & Payback -->
    <g transform="translate(815, 0)" filter="url(#cardShadow)">
      <rect width="225" height="325" rx="8" fill="#0F172A" stroke="#334155" stroke-width="1.5" />
      <rect width="225" height="30" rx="8" fill="#1E293B" />
      <text x="112" y="20" text-anchor="middle" class="sec-title" fill="#38BDF8">4. TỔNG LỢI ÍCH &amp; HOÀN VỐN</text>

      <!-- Visual Metric Gauge / Progress -->
      <g transform="translate(20, 38)">
        <!-- Circular Progress Ring (Payback 3.87 yrs out of 15 yrs) -->
        <circle cx="92" cy="30" r="24" fill="none" stroke="#334155" stroke-width="5" />
        <circle cx="92" cy="30" r="24" fill="none" stroke="#4ADE80" stroke-width="5" stroke-dasharray="150" stroke-dashoffset="111" stroke-linecap="round" />
        <text x="92" y="34" text-anchor="middle" font-size="12px" font-weight="800" fill="#4ADE80">3,87</text>
        <text x="92" y="44" text-anchor="middle" font-size="7px" fill="#94A3B8">NĂM</text>
        <text x="92" y="68" text-anchor="middle" class="txt-bold" fill="#38BDF8">Thời Gian Hoàn Vốn Đầu Tư</text>
      </g>

      <!-- Financial Metrics Summary -->
      <g transform="translate(10, 115)">
        <rect width="205" height="195" rx="5" fill="#1E293B" stroke="#334155" />
        
        <text x="10" y="18" font-size="9px" fill="#94A3B8">Tổng điện thu hồi &amp; xả:</text>
        <text x="10" y="32" font-size="11px" font-weight="700" fill="#F8FAFC">712.182 kWh / Năm</text>

        <text x="10" y="52" font-size="9px" fill="#94A3B8">Tổng giá trị tài chính tạo ra:</text>
        <text x="10" y="68" font-size="13px" font-weight="800" fill="#4ADE80">+323.164 AUD / Năm</text>
        <text x="10" y="80" font-size="8px" fill="#94A3B8">(Bình quân 26.930 AUD / Tháng)</text>

        <text x="10" y="100" font-size="9px" fill="#94A3B8">Tỷ suất sinh lời nội bộ IRR:</text>
        <text x="10" y="116" font-size="13px" font-weight="800" fill="#FACC15">24,6% (Vòng đời 15 năm)</text>

        <rect x="8" y="132" width="189" height="52" rx="4" fill="#042F2E" stroke="#059669" />
        <text x="102" y="148" text-anchor="middle" font-size="9px" font-weight="700" fill="#6EE7B7">ĐÓNG GÓP MÔI TRƯỜNG ESG:</text>
        <text x="102" y="163" text-anchor="middle" font-size="11px" font-weight="800" fill="#F8FAFC">-655 TẤN CO2 / NĂM</text>
        <text x="102" y="176" text-anchor="middle" font-size="7.5px" fill="#6EE7B7">Trồng ~30.000 cây xanh</text>
      </g>
    </g>
  </g>
</svg>
